<svg width="52" height="52" viewBox="0 0 52 52" fill="none" xmlns="http://www.w3.org/2000/svg">
<g clip-path="url(#clip0_1_7)">
<path fill-rule="evenodd" clip-rule="evenodd" d="M10.4433 42.0485C4.017 38.025 -0.260002 30.8837 -0.260002 22.75C-0.260002 10.1942 9.93417 0 22.49 0C30.3008 0 37.1995 3.9455 41.2967 9.9515C47.723 13.975 52 21.1163 52 29.25C52 41.8058 41.8058 52 29.25 52C21.4522 52 14.5643 48.0675 10.465 42.0788L10.4433 42.0485ZM29.25 8.66667C40.6098 8.66667 49.8333 17.8902 49.8333 29.25C49.8333 40.6098 40.6098 49.8333 29.25 49.8333C17.8902 49.8333 8.66667 40.6098 8.66667 29.25C8.66667 17.8902 17.8902 8.66667 29.25 8.66667ZM30.3333 41.1667H28.1212V39.2795C23.0447 38.6252 22.49 34.5583 22.49 33.3342H24.8538C24.908 34.2117 25.194 37.1778 29.5815 37.1778C30.8793 37.1778 31.9388 36.8723 32.7297 36.27C33.5118 35.672 33.891 34.944 33.891 34.0405C33.891 32.3223 32.7795 31.0787 29.406 30.3182C24.2753 29.1568 23.0728 27.2892 23.0728 24.83C23.0728 21.5605 25.7227 20.0287 28.1212 19.617V17.3333H30.3333V19.5325C35.7305 19.955 36.1725 24.3317 36.1725 25.5363H33.7935C33.7935 23.0208 31.8045 21.71 29.4688 21.71C27.1353 21.71 25.4518 22.8627 25.4518 24.7607C25.4518 26.4528 26.403 27.2848 29.7722 28.1277C33.8433 29.1525 36.27 30.5132 36.27 33.9365C36.27 37.7152 33.0005 39.1213 30.3333 39.338V41.1667ZM36.5083 7.68517C32.8337 4.26183 27.9045 2.16667 22.49 2.16667C11.1302 2.16667 1.90666 11.3902 1.90666 22.75C1.90666 28.4548 4.2315 33.6202 7.98633 37.3512L7.97766 37.3295C7.02433 34.8183 6.5 32.0948 6.5 29.25C6.5 16.6942 16.6942 6.5 29.25 6.5C31.7872 6.5 34.229 6.916 36.5083 7.68517Z" fill="black"/>
</g>
<defs>
<clipPath id="clip0_1_7">
<rect width="52" height="52" fill="white"/>
</clipPath>
</defs>
</svg>