
<svg width="45" height="39" viewBox="0 0 45 39" fill="none" xmlns="http://www.w3.org/2000/svg">
<path d="M33.75 17.625C38.9194 17.625 43.125 21.8306 43.125 27C43.125 32.1694 38.9194 36.375 33.75 36.375C28.5806 36.375 24.375 32.1694 24.375 27C24.375 21.8306 28.5806 17.625 33.75 17.625ZM33.75 15.75C27.5381 15.75 22.5 20.7881 22.5 27C22.5 33.2119 27.5381 38.25 33.75 38.25C39.9619 38.25 45 33.2119 45 27C45 20.7881 39.9619 15.75 33.75 15.75ZM34.6875 31.6388V32.625H33.75V31.6894C32.7788 31.6725 31.7756 31.4419 30.9375 31.0088L31.365 29.4675C32.2612 29.8162 33.4538 30.1856 34.3875 29.9738C35.4637 29.73 35.685 28.6219 34.4944 28.0894C33.6225 27.6825 30.9525 27.3356 30.9525 25.0481C30.9525 23.7712 31.9275 22.6256 33.75 22.3763V21.375H34.6875V22.3294C35.3662 22.3481 36.1275 22.4662 36.9769 22.7231L36.6375 24.2681C35.9175 24.015 35.1225 23.7862 34.3463 23.8331C32.9513 23.9137 32.8275 25.1231 33.8025 25.6294C35.4075 26.3831 37.5 26.9419 37.5 28.9538C37.5019 30.5625 36.24 31.4194 34.6875 31.6388ZM19.8544 21.375H15V17.625H22.0594C21.1519 18.7537 20.4075 20.0138 19.8544 21.375ZM18.75 27H15V23.25H19.245C18.9338 24.4519 18.75 25.7044 18.75 27ZM23.8631 15.75H15V12H28.125V13.1044C26.5519 13.7437 25.1175 14.6456 23.8631 15.75ZM28.125 4.5H15V0.75H28.125V4.5ZM28.125 10.125H15V6.375H28.125V10.125ZM19.8544 32.625H15V28.875H18.8794C19.0444 30.1838 19.3744 31.4419 19.8544 32.625ZM0 12H13.125V15.75H0V12ZM0 17.625H13.125V21.375H0V17.625ZM23.8631 38.25H15V34.5H20.7787C21.6 35.9119 22.6425 37.1775 23.8631 38.25ZM0 28.875H13.125V32.625H0V28.875ZM0 34.5H13.125V38.25H0V34.5ZM0 23.25H13.125V27H0V23.25Z" fill="black"/>
</svg>
