
<svg width="43" height="41" viewBox="0 0 43 41" fill="none" xmlns="http://www.w3.org/2000/svg">
<path d="M18.9075 4.59537C19.7495 4.45383 20.6149 4.375 21.5 4.375C30.4064 4.375 37.625 11.5936 37.625 20.5C37.625 23.6211 36.7292 26.5254 35.1901 28.9889C35.595 27.4176 35.8333 25.78 35.8333 24.0833C35.8333 14.1629 28.4588 5.95346 18.9075 4.59537ZM41.2083 20.5C41.2083 22.1967 40.97 23.8343 40.5651 25.4056C42.1042 22.942 43 20.0377 43 16.9167C43 8.01029 35.7814 0.791664 26.875 0.791664C25.9899 0.791664 25.1245 0.870498 24.2825 1.01204C33.8338 2.37012 41.2083 10.5795 41.2083 20.5ZM16.125 11.5417C23.039 11.5417 28.6667 17.1675 28.6667 24.0833C28.6667 30.9992 23.039 36.625 16.125 36.625C9.21096 36.625 3.58333 30.9992 3.58333 24.0833C3.58333 17.1675 9.21096 11.5417 16.125 11.5417ZM16.125 7.95833C7.21862 7.95833 0 15.177 0 24.0833C0 32.9897 7.21862 40.2083 16.125 40.2083C25.0314 40.2083 32.25 32.9897 32.25 24.0833C32.25 15.177 25.0314 7.95833 16.125 7.95833ZM22.2453 27.1937C22.2453 23.992 18.9128 23.0997 16.3579 21.8993C14.8099 21.0948 15.0016 19.167 17.2233 19.038C18.4613 18.9627 19.7245 19.3282 20.8711 19.7314L21.4122 17.2732C20.0577 16.8611 18.8501 16.673 17.7662 16.6425V15.125H16.2755V16.7178C13.3712 17.1173 11.8178 18.9395 11.8178 20.973C11.8178 24.6137 16.0695 25.1691 17.458 25.8159C19.359 26.6651 19.0042 28.4281 17.2896 28.8169C15.8025 29.1537 13.898 28.5661 12.4736 28.0107L11.7963 30.4653C13.1293 31.155 14.7293 31.5241 16.2755 31.5492V33.0417H17.7662V31.4704C20.2405 31.1228 22.2507 29.7575 22.2453 27.1937Z" fill="black"/>
</svg>