
<svg width="52" height="52" viewBox="0 0 52 52" fill="none" xmlns="http://www.w3.org/2000/svg">
<g clip-path="url(#clip0_13_181)">
<path fill-rule="evenodd" clip-rule="evenodd" d="M52 49.8333H0V8.66667H8.66667V2.16667H17.3333V8.66667H34.6667V2.16667H43.3333V8.66667H52V49.8333ZM49.8333 17.3333H2.16667V47.6667H49.8333V17.3333ZM14.0812 36.387L16.3172 36.1097C16.7527 38.1247 17.8187 39.442 19.8792 39.442C21.9527 39.442 23.6297 37.9557 23.6297 35.9017C23.6297 33.7588 21.7902 32.0255 18.4882 32.8358L18.7373 31.0093C20.709 31.2043 22.8107 30.2553 22.8107 28.197C22.8107 26.7367 21.6667 25.545 19.8293 25.545C18.1155 25.545 16.874 26.5395 16.5403 28.6L14.3043 28.2295C14.8633 25.3717 16.9628 23.8333 19.7795 23.8333C22.8367 23.8333 25.1073 25.7682 25.1073 28.2425C25.1073 29.6422 24.3208 30.94 22.5983 31.6788C24.7498 32.1403 26 33.6592 26 35.8562C26 39.0195 23.1963 41.1667 19.8662 41.1667C16.549 41.1667 14.3693 39.1192 14.0812 36.387ZM34.6667 41.1667H32.4328V27.5925C31.3083 28.5913 29.4992 29.6443 28.1667 30.1037V28.0908C31.018 26.8428 32.578 25.0532 33.228 23.8333H34.6667V41.1667ZM49.8333 10.8333H2.16667V15.1667H49.8333V10.8333ZM15.1667 4.33334H10.8333V8.66667H15.1667V4.33334ZM41.1667 4.33334H36.8333V8.66667H41.1667V4.33334Z" fill="black"/>
</g>
<defs>
<clipPath id="clip0_13_181">
<rect width="52" height="52" fill="white"/>
</clipPath>
</defs>
</svg>