
<svg width="41" height="42" viewBox="0 0 41 42" fill="none" xmlns="http://www.w3.org/2000/svg">
<path d="M13.7638 27.7318L27.2383 14.2617M16.0085 13.135H16.0302M22.723 28.852H22.7447M25.0067 3.45433C25.6077 4.09741 26.3394 4.60449 27.1526 4.94157C27.9657 5.27864 28.8416 5.4379 29.7213 5.40866C30.5656 5.37997 31.4067 5.52511 32.1926 5.83507C32.9784 6.14504 33.6921 6.61322 34.2895 7.21055C34.8868 7.80787 35.355 8.5216 35.6649 9.30743C35.9749 10.0933 36.12 10.9344 36.0913 11.7787C36.0618 12.6583 36.2207 13.534 36.5574 14.3472C36.8941 15.1603 37.4008 15.8921 38.0435 16.4933C38.661 17.0704 39.1533 17.7682 39.4898 18.5435C39.8264 19.3187 40.0001 20.1548 40.0001 21C40.0001 21.8451 39.8264 22.6813 39.4898 23.4565C39.1533 24.2318 38.661 24.9296 38.0435 25.5067C37.401 26.1076 36.8944 26.839 36.5577 27.6518C36.221 28.4645 36.062 29.3399 36.0913 30.2192C36.1207 31.0636 35.976 31.905 35.6662 32.6911C35.3565 33.4773 34.8883 34.1912 34.2909 34.7887C33.6934 35.3862 32.9794 35.8543 32.1933 36.1641C31.4072 36.4738 30.5658 36.6185 29.7213 36.5892C28.8416 36.5598 27.9657 36.719 27.1525 37.0561C26.3393 37.3931 25.6077 37.9003 25.0067 38.5435C24.4296 39.161 23.7318 39.6532 22.9565 39.9898C22.1813 40.3264 21.3452 40.5001 20.5 40.5001C19.6548 40.5001 18.8187 40.3264 18.0435 39.9898C17.2682 39.6532 16.5704 39.161 15.9933 38.5435C15.3922 37.9005 14.6605 37.3935 13.8474 37.0565C13.0342 36.7194 12.1584 36.5601 11.2787 36.5892C10.4344 36.6179 9.59326 36.4727 8.80743 36.1627C8.02161 35.8528 7.30788 35.3846 6.71055 34.7873C6.11322 34.19 5.64505 33.4762 5.33508 32.6904C5.02511 31.9046 4.87997 31.0634 4.90867 30.2192C4.93832 29.3395 4.77946 28.4638 4.44276 27.6506C4.10606 26.8374 3.5993 26.1057 2.9565 25.5045C2.33932 24.9272 1.84729 24.2294 1.5109 23.4542C1.17451 22.6789 1.00093 21.8429 1.00093 20.9978C1.00093 20.1528 1.17451 19.3167 1.5109 18.5415C1.84729 17.7663 2.33932 17.0684 2.9565 16.4912C3.59919 15.8899 4.10587 15.1581 4.44256 14.345C4.77926 13.5318 4.93818 12.6561 4.90867 11.7765C4.87995 10.932 5.02516 10.0907 5.33525 9.30473C5.64535 8.51876 6.11373 7.80492 6.71129 7.20757C7.30885 6.61021 8.02284 6.14208 8.80893 5.83224C9.59501 5.52241 10.4364 5.3775 11.2808 5.4065C12.1604 5.43601 13.0362 5.27709 13.8493 4.94039C14.6625 4.6037 15.3942 4.09702 15.9955 3.45433C16.5726 2.83721 17.2702 2.34521 18.0453 2.00885C18.8203 1.67248 19.6562 1.49892 20.5011 1.49892C21.346 1.49892 22.1818 1.67248 22.9569 2.00885C23.7319 2.34521 24.4296 2.83721 25.0067 3.45433Z" stroke="black" stroke-width="2" stroke-linecap="round" stroke-linejoin="round"/>
</svg>